<?xml version="1.0" standalone="no"?>
<svg version="1.0" xmlns="http://www.w3.org/2000/svg"
 width="100" height="100" viewBox="0 0 1024 1024"
 preserveAspectRatio="xMidYMid meet">
<g transform="translate(0.000000,1024.000000) scale(0.100000,-0.100000)"
fill="#000000" stroke="none">
<path d="M4595 9049 c-129 -6 -147 -9 -230 -42 -113 -44 -194 -86 -220 -113
-5 -5 -32 -27 -58 -48 -67 -53 -114 -120 -192 -270 -98 -190 -235 -574 -316
-886 -22 -85 -52 -198 -66 -250 -39 -148 -63 -248 -78 -330 -14 -78 -158 -657
-174 -700 -5 -14 -26 -79 -47 -145 -43 -139 -107 -320 -136 -385 -35 -79 -107
-224 -129 -260 -73 -121 -342 -430 -375 -430 -8 0 -14 -4 -14 -9 0 -5 -26 -26
-57 -47 -32 -22 -60 -42 -63 -45 -10 -12 -150 -82 -210 -104 -25 -9 -52 -21
-60 -25 -9 -4 -36 -11 -60 -15 -25 -4 -49 -11 -55 -15 -5 -4 -41 -11 -80 -14
-38 -4 -83 -11 -100 -16 -29 -9 -248 -29 -385 -36 -84 -3 -175 -21 -211 -40
-22 -11 -29 -22 -29 -43 0 -16 6 -33 13 -38 22 -18 136 -53 172 -53 19 0 43
-4 53 -9 9 -6 55 -14 102 -20 91 -11 311 -78 351 -106 8 -6 39 -23 69 -38 84
-43 216 -146 311 -244 81 -84 212 -249 239 -303 7 -14 37 -62 66 -106 30 -45
54 -84 54 -88 0 -3 19 -33 43 -65 23 -33 53 -78 67 -101 42 -71 159 -174 246
-216 l78 -39 126 0 c103 1 132 4 153 18 14 9 31 17 37 17 19 0 121 72 162 115
119 122 239 353 299 578 10 37 21 72 24 77 3 4 19 62 36 127 73 278 160 611
203 778 42 162 68 260 126 465 10 36 28 102 40 148 12 46 50 160 85 255 94
250 144 317 241 317 56 0 104 -109 134 -305 6 -44 16 -102 20 -130 5 -27 12
-77 15 -110 4 -33 13 -96 20 -140 13 -71 40 -307 90 -765 8 -80 20 -167 25
-195 8 -44 44 -371 70 -643 29 -300 62 -607 79 -752 11 -91 32 -259 45 -375
27 -218 37 -289 81 -540 62 -351 177 -717 279 -885 12 -19 27 -47 34 -62 12
-29 84 -124 130 -171 82 -86 146 -129 281 -191 13 -6 72 -11 130 -10 105 0
107 1 201 46 228 109 396 321 502 633 11 33 23 65 28 70 7 9 31 80 50 150 85
314 117 449 154 655 8 41 30 138 49 215 20 77 47 194 62 260 15 66 35 149 46
185 108 376 137 465 217 675 37 99 142 288 216 388 87 120 173 205 273 271 73
49 200 106 235 106 10 0 28 4 38 10 49 26 177 39 525 51 143 5 270 13 283 19
13 5 35 10 50 10 15 0 42 9 60 20 28 17 31 24 26 47 -4 16 -12 31 -18 36 -14
9 -95 32 -171 47 -163 32 -279 71 -351 120 -98 67 -223 196 -276 285 -16 28
-47 78 -68 113 -44 70 -74 128 -178 342 -129 266 -201 373 -301 451 -25 19
-49 39 -55 45 -21 20 -123 72 -157 79 -19 4 -40 12 -48 19 -20 15 -207 14
-223 -2 -6 -6 -18 -12 -26 -12 -38 0 -170 -76 -248 -142 -68 -58 -174 -221
-242 -374 -24 -53 -102 -275 -102 -291 0 -8 -6 -29 -13 -46 -12 -28 -83 -309
-122 -482 -119 -524 -203 -843 -245 -926 -27 -52 -47 -69 -80 -69 -42 0 -67
42 -79 131 -5 41 -17 117 -25 169 -15 93 -43 314 -71 560 -18 150 -31 251 -44
345 -6 39 -18 129 -26 200 -9 72 -23 184 -31 250 -8 66 -23 195 -34 288 -10
92 -21 171 -24 175 -3 5 -19 120 -35 258 -17 137 -35 283 -41 324 -5 41 -14
127 -21 190 -6 63 -13 117 -14 120 -2 3 -22 134 -45 290 -47 320 -93 563 -151
785 -40 155 -92 319 -107 339 -5 6 -15 29 -22 51 -24 75 -135 270 -180 316
-14 14 -50 51 -80 83 -30 32 -64 62 -75 67 -11 5 -40 21 -65 36 -54 32 -162
73 -210 80 -19 3 -39 8 -45 12 -5 3 -73 3 -150 0z"/>
</g>
</svg>
